<?xml version="1.0" encoding="UTF-8"?>
<svg version="1.1" xmlns="http://www.w3.org/2000/svg" width="750" height="750">
<path d="M0 0 C14.96099567 10.61870415 27.2086409 23.49967058 38.08203125 38.1875 C38.51112793 38.76113281 38.94022461 39.33476562 39.38232422 39.92578125 C48.12613266 51.65923718 55.5648566 63.93187218 62.14453125 77 C62.53906494 77.78342773 62.93359863 78.56685547 63.34008789 79.37402344 C66.08203125 84.93040608 66.08203125 84.93040608 66.08203125 87.1875 C66.91863281 87.22488281 67.75523437 87.26226562 68.6171875 87.30078125 C103.54074414 89.27320804 135.08141272 103.95025913 160.08203125 128.1875 C161.24025391 129.27611328 161.24025391 129.27611328 162.421875 130.38671875 C164.08203125 132.1875 164.08203125 132.1875 164.08203125 134.1875 C165.07203125 134.5175 166.06203125 134.8475 167.08203125 135.1875 C168.74280958 137.1540534 170.23336551 139.08710613 171.70703125 141.1875 C172.36409058 142.12203003 172.36409058 142.12203003 173.03442383 143.07543945 C180.9117341 154.54894393 193.08203125 172.88985052 193.08203125 187.1875 C193.68144531 187.20167969 194.28085937 187.21585938 194.8984375 187.23046875 C202.32985952 187.62159622 209.43876845 188.94955389 216.70703125 190.5 C217.6719751 190.70069092 218.63691895 190.90138184 219.63110352 191.1081543 C228.88823359 193.14417072 237.31255617 196.51545681 245.64453125 201 C246.28729004 201.34546875 246.93004883 201.6909375 247.59228516 202.046875 C252.86258712 204.94547472 257.52169441 208.25981105 262.08203125 212.1875 C262.78199219 212.73277344 263.48195313 213.27804687 264.203125 213.83984375 C283.68467055 229.70983718 295.53400558 255.7964502 298.66796875 280.3671875 C301.20594203 305.38392054 292.50772149 331.24864201 276.83300781 350.71655273 C267.20281386 362.15906523 256.01870742 370.79746489 243.08203125 378.1875 C241.99664063 378.84878906 240.91125 379.51007813 239.79296875 380.19140625 C226.20513839 387.90880236 210.02838461 390.38154647 194.81640625 392.74023438 C190.69166438 393.41492429 186.60961657 394.26835576 182.51953125 395.125 C166.16537029 398.48674414 149.64197858 400.99553872 133.15454102 403.60571289 C121.65499263 405.42645039 110.17131663 407.33376946 98.69326782 409.28497314 C96.89747024 409.59017121 95.10155505 409.89467822 93.30551147 410.19842529 C83.63799021 411.83498629 74.00584735 413.56049995 64.39794922 415.51977539 C59.68112359 416.46960002 54.94890503 417.31094629 50.20703125 418.125 C49.24506836 418.2912085 48.28310547 418.45741699 47.29199219 418.62866211 C36.86199318 420.41769433 26.41259449 422.08288395 15.95947266 423.73046875 C13.34655978 424.14548427 10.73550587 424.57014698 8.125 425 C-0.5999399 426.42655284 -9.32757706 427.63114265 -18.10546875 428.6875 C-27.47765912 429.81635913 -36.65894927 431.36250396 -45.91796875 433.1875 C-70.83306075 437.84765779 -98.68838413 438.15052024 -122.91796875 430.1875 C-123.59682129 429.97609375 -124.27567383 429.7646875 -124.97509766 429.546875 C-140.19280639 424.79112501 -153.27895758 417.92839396 -165.91796875 408.1875 C-167.13226563 407.31351563 -167.13226563 407.31351563 -168.37109375 406.421875 C-169.1084375 405.89078125 -169.84578125 405.3596875 -170.60546875 404.8125 C-171.24871094 404.35101562 -171.89195312 403.88953125 -172.5546875 403.4140625 C-173.00457031 403.00929688 -173.45445312 402.60453125 -173.91796875 402.1875 C-173.91796875 401.5275 -173.91796875 400.8675 -173.91796875 400.1875 C-174.47097656 399.96578125 -175.02398437 399.7440625 -175.59375 399.515625 C-189.98767921 391.2905226 -198.613508 371.71448685 -204.91796875 357.1875 C-205.40394531 356.09953125 -205.88992187 355.0115625 -206.390625 353.890625 C-208.936842 348.04100695 -210.92827273 342.49080672 -211.91796875 336.1875 C-212.10230469 335.07375 -212.28664062 333.96 -212.4765625 332.8125 C-217.27031931 300.01659135 -211.77646385 266.19349771 -191.6484375 239.13671875 C-189.45651454 236.43695674 -187.20924717 233.80317089 -184.91796875 231.1875 C-183.90089844 229.97126953 -183.90089844 229.97126953 -182.86328125 228.73046875 C-179.36587745 224.58727877 -179.36587745 224.58727877 -177.91796875 223.1875 C-177.25796875 223.1875 -176.59796875 223.1875 -175.91796875 223.1875 C-175.91796875 222.5275 -175.91796875 221.8675 -175.91796875 221.1875 C-175.25796875 221.1875 -174.59796875 221.1875 -173.91796875 221.1875 C-173.58796875 220.1975 -173.25796875 219.2075 -172.91796875 218.1875 C-165.34863217 211.57085578 -156.61334199 206.17587467 -147.91796875 201.1875 C-147.10908203 200.71779785 -146.30019531 200.2480957 -145.46679688 199.76416016 C-139.01559113 196.11667694 -132.57117238 193.27751066 -125.54296875 190.9375 C-124.51292725 190.59323975 -123.48288574 190.24897949 -122.42163086 189.89428711 C-113.08864587 186.94390572 -103.97618333 185.7781765 -94.23095703 185.33642578 C-91.07582365 185.13327702 -87.96664423 184.67627903 -84.84350586 184.19116211 C-82.91796875 184.1875 -82.91796875 184.1875 -79.91796875 186.1875 C-79.57765625 184.33125 -79.57765625 184.33125 -79.23046875 182.4375 C-72.48376434 152.61241361 -47.91114242 124.82564216 -22.94873047 108.45947266 C-7.04628732 98.49893782 9.16673646 92.78043806 27.4765625 88.984375 C30.89548467 88.38229356 30.89548467 88.38229356 33.08203125 87.1875 C25.47159192 72.14898606 25.47159192 72.14898606 16.08203125 58.1875 C15.54707031 57.46304688 15.01210938 56.73859375 14.4609375 55.9921875 C12.27400065 53.03627785 10.04940938 50.14801037 7.70703125 47.3125 C6.08203125 45.1875 6.08203125 45.1875 6.08203125 43.1875 C5.50453125 42.960625 4.92703125 42.73375 4.33203125 42.5 C2.08203125 41.1875 2.08203125 41.1875 0.23046875 38.8515625 C-6.88846406 30.02408582 -18.16682064 22.16208987 -29.48046875 20.4296875 C-39.59623774 19.42459507 -48.30231065 20.28321322 -56.72265625 26.37109375 C-64.41206291 32.73332524 -68.9965755 40.07855831 -72.91796875 49.1875 C-73.23636719 49.92613281 -73.55476562 50.66476563 -73.8828125 51.42578125 C-78.57601216 63.82423407 -78.28476863 77.93069835 -78.23046875 91 C-78.23030762 91.79966187 -78.23014648 92.59932373 -78.22998047 93.42321777 C-78.21235878 106.07873493 -77.35866558 118.3799143 -75.57421875 130.921875 C-73.76368866 144.25735731 -73.76368866 144.25735731 -77.04296875 150.125 C-77.49800781 150.95386719 -77.95304688 151.78273438 -78.421875 152.63671875 C-78.91558594 153.47847656 -79.40929687 154.32023438 -79.91796875 155.1875 C-80.42199219 156.06019531 -80.92601562 156.93289063 -81.4453125 157.83203125 C-82.90293553 160.30591054 -84.40566874 162.74681581 -85.91796875 165.1875 C-86.459375 166.14076172 -86.459375 166.14076172 -87.01171875 167.11328125 C-88.58439098 169.77033634 -89.59089535 171.0518842 -92.48046875 172.25 C-94.91796875 172.1875 -94.91796875 172.1875 -96.4440918 171.0703125 C-102.67346415 163.11256534 -103.18011831 148.95283041 -104.60546875 139.1875 C-104.76613831 138.11964264 -104.76613831 138.11964264 -104.93005371 137.0302124 C-106.57072747 126.069813 -107.56094005 115.22322738 -107.77734375 104.1328125 C-107.72867436 100.28499302 -107.72867436 100.28499302 -108.91796875 97.1875 C-109.0127326 95.13452157 -109.04869115 93.07860082 -109.05078125 91.0234375 C-109.05207031 89.81945312 -109.05335938 88.61546875 -109.0546875 87.375 C-109.05082031 86.116875 -109.04695313 84.85875 -109.04296875 83.5625 C-109.04683594 82.29664063 -109.05070312 81.03078125 -109.0546875 79.7265625 C-109.05339844 78.52515625 -109.05210937 77.32375 -109.05078125 76.0859375 C-109.04965332 74.97911621 -109.04852539 73.87229492 -109.04736328 72.73193359 C-108.91796875 70.1875 -108.91796875 70.1875 -107.91796875 69.1875 C-107.60358607 67.39891746 -107.29506572 65.6090921 -107.01733398 63.81445312 C-105.59354455 54.6369313 -103.56839186 45.76539192 -99.91796875 37.1875 C-99.25796875 36.8575 -98.59796875 36.5275 -97.91796875 36.1875 C-97.69560547 35.07375 -97.69560547 35.07375 -97.46875 33.9375 C-94.96288731 21.42595862 -80.35967236 8.28957483 -70.53125 0.828125 C-65.63053032 -2.24856 -60.40113897 -4.04556097 -54.91796875 -5.8125 C-53.81453125 -6.20566406 -52.71109375 -6.59882812 -51.57421875 -7.00390625 C-33.47021571 -12.96244854 -15.9653985 -10.50202755 0 0 Z M87.08203125 156.1875 C87.07268555 156.92162109 87.06333984 157.65574219 87.05371094 158.41210938 C86.63751265 184.47754711 83.9341782 204.82176381 65.03125 224.30078125 C59.8895595 229.1326147 54.14038171 232.97210871 48.22216797 236.77563477 C45.2126233 238.71446854 42.54777014 240.5959202 40.08203125 243.1875 C41.91522845 243.33503471 43.74860238 243.48037272 45.58203125 243.625 C46.77183594 243.72039062 47.96164062 243.81578125 49.1875 243.9140625 C51.77089867 244.09544455 54.3574637 244.23650549 56.9453125 244.3359375 C74.84205933 245.07942253 92.11985037 249.29020368 105.51953125 262 C112.4349248 269.67700076 118.28150552 278.21501122 123.671875 287.0078125 C125.03214319 289.27734644 125.03214319 289.27734644 127.08203125 291.1875 C127.7913164 286.57714652 128.11335285 282.22856094 128.01953125 277.5625 C127.95394619 260.09501319 132.52620052 240.8266923 144.56640625 227.55078125 C145.7250368 226.41600486 146.90204762 225.300056 148.08203125 224.1875 C148.43265625 223.465625 148.78328125 222.74375 149.14453125 222 C150.39230081 219.58764552 151.64173922 219.39540375 154.08203125 218.1875 C156.20756493 216.77325602 158.30672883 215.3425766 160.39453125 213.875 C160.96905029 213.47345703 161.54356934 213.07191406 162.13549805 212.65820312 C163.78582471 211.50341753 165.43398253 210.34553424 167.08203125 209.1875 C167.87609375 208.63707031 168.67015625 208.08664062 169.48828125 207.51953125 C171.03887437 206.43602254 172.56448881 205.31683391 174.08203125 204.1875 C174.08203125 203.8575 174.08203125 203.5275 174.08203125 203.1875 C173.4586084 203.17291748 172.83518555 203.15833496 172.19287109 203.14331055 C156.70723099 202.73954823 142.16036054 202.33665159 128.08203125 195.1875 C127.44265625 194.91421875 126.80328125 194.6409375 126.14453125 194.359375 C119.6068462 191.45959534 114.42315371 186.86902601 109.08203125 182.1875 C108.45296875 181.64351562 107.82390625 181.09953125 107.17578125 180.5390625 C100.49680632 174.33265655 94.91072009 166.14431456 90.41015625 158.2578125 C89.971875 157.57460938 89.53359375 156.89140625 89.08203125 156.1875 C88.42203125 156.1875 87.76203125 156.1875 87.08203125 156.1875 Z M-95.91796875 230.1875 C-96.088125 231.43144531 -96.25828125 232.67539062 -96.43359375 233.95703125 C-98.38347833 247.61446229 -100.51120815 258.60742302 -109.91796875 269.1875 C-110.61599609 270.05955078 -110.61599609 270.05955078 -111.328125 270.94921875 C-116.87466461 277.29446007 -124.73958769 281.00522113 -132.0144043 285.04003906 C-134.09488731 286.29414579 -135.99760929 287.70197412 -137.91796875 289.1875 C-137.27883545 289.23237549 -136.63970215 289.27725098 -135.98120117 289.32348633 C-133.02169024 289.53775801 -130.06370373 289.76880256 -127.10546875 290 C-126.10064453 290.07025391 -125.09582031 290.14050781 -124.06054688 290.21289062 C-110.49044707 291.30373466 -96.46286804 294.83026885 -86.91796875 305.1875 C-82.48162969 310.88862687 -78.68124551 317.02941075 -74.91796875 323.1875 C-72.87490572 319.74876428 -72.51346905 316.69998088 -72.10546875 312.75 C-70.17156637 298.51884047 -64.37698902 286.35498591 -53.29296875 277 C-47.22850476 272.42322483 -40.58497248 268.79959424 -33.91796875 265.1875 C-33.91796875 264.8575 -33.91796875 264.5275 -33.91796875 264.1875 C-35.21089844 264.08953125 -36.50382812 263.9915625 -37.8359375 263.890625 C-57.09085427 262.29671795 -72.75955235 258.30813639 -85.91796875 243.1875 C-89.29320801 239.04516091 -92.19036578 234.78135763 -94.91796875 230.1875 C-95.24796875 230.1875 -95.57796875 230.1875 -95.91796875 230.1875 Z " fill="#66AAE8" transform="translate(343.91796875,125.8125)"/>
<path d="M0 0 C0.66 0.33 1.32 0.66 2 1 C2.51494416 3.08656563 2.93557677 5.19664261 3.3125 7.3125 C5.21148529 16.67382947 7.82875427 26.31770284 15 33 C17.89748202 34.90249763 20.88354522 36.48784194 24 38 C25.093125 38.53625 26.18625 39.0725 27.3125 39.625 C32.43519729 41.53515831 37.67903261 42.76805188 43 44 C43 45.32 43 46.64 43 48 C42.26136719 48.09796875 41.52273437 48.1959375 40.76171875 48.296875 C27.07943667 50.31357731 17.22287581 53.92377237 8.37109375 65.046875 C5.68176386 69.06080022 4.0907343 73.20671166 2.69140625 77.8125 C1.68846048 80.98566175 0.35675757 83.96344734 -1 87 C-1.99 86.67 -2.98 86.34 -4 86 C-4.94921875 83.6015625 -4.94921875 83.6015625 -5.6875 80.625 C-5.93886719 79.64789063 -6.19023438 78.67078125 -6.44921875 77.6640625 C-7 75 -7 75 -7 72 C-7.99 71.505 -7.99 71.505 -9 71 C-9.89321492 69.1432844 -10.73985293 67.26404142 -11.5625 65.375 C-15.84718493 56.58617067 -22.01438556 52.4197877 -31 49 C-33.79492918 48.04362207 -36.61045149 47.16863271 -39.4375 46.3125 C-40.16904297 46.08755859 -40.90058594 45.86261719 -41.65429688 45.63085938 C-43.43514536 45.08380134 -45.21742517 44.54140628 -47 44 C-47 43.34 -47 42.68 -47 42 C-45.36804688 41.56300781 -45.36804688 41.56300781 -43.703125 41.1171875 C-29.78838478 37.2796787 -16.10370742 33.21167593 -8.484375 20.07421875 C-6.4426085 15.84561288 -5.00110617 11.493831 -3.6484375 7.00268555 C-2.18522117 2.18522117 -2.18522117 2.18522117 0 0 Z " fill="#5A9DDD" transform="translate(122,263)"/>
<path d="M0 0 C0.78375 0.04125 1.5675 0.0825 2.375 0.125 C2.375 1.775 2.375 3.425 2.375 5.125 C1.715 5.125 1.055 5.125 0.375 5.125 C0.32601562 6.16398438 0.27703125 7.20296875 0.2265625 8.2734375 C-0.17859134 16.07335078 -0.83644111 23.4938154 -2.625 31.125 C-6.585 31.455 -10.545 31.785 -14.625 32.125 C-19.5 21.5 -19.5 21.5 -20.625 18.125 C-21.67875159 22.12925603 -22.60132369 25.95926585 -23.1875 30.0625 C-23.625 33.125 -23.625 33.125 -24.625 34.125 C-26.47391946 34.35863881 -28.32988031 34.53803635 -30.1875 34.6875 C-31.19941406 34.77128906 -32.21132813 34.85507812 -33.25390625 34.94140625 C-34.03636719 35.00199219 -34.81882812 35.06257812 -35.625 35.125 C-47.625 11.64927184 -47.625 11.64927184 -47.625 6.125 C-43.335 5.465 -39.045 4.805 -34.625 4.125 C-29.75 15.75 -29.75 15.75 -28.625 19.125 C-27.15930585 16.1936117 -27.00413782 13.23867734 -26.5625 10 C-26.38589844 8.71867188 -26.20929688 7.43734375 -26.02734375 6.1171875 C-25.89457031 5.12976563 -25.76179688 4.14234375 -25.625 3.125 C-19.685 2.63 -19.685 2.63 -13.625 2.125 C-11.645 6.745 -9.665 11.365 -7.625 16.125 C-5.26106478 13.76106478 -5.64111499 8.33240131 -5.22265625 5.12890625 C-4.47526239 1.37239725 -3.93136105 0.18720767 0 0 Z " fill="#579BDD" transform="translate(380.625,558.875)"/>
<path d="M0 0 C0.66 0 1.32 0 2 0 C2.31453125 1.02480469 2.6290625 2.04960938 2.953125 3.10546875 C3.38484559 4.46632713 3.81716934 5.82699427 4.25 7.1875 C4.45496094 7.86103516 4.65992188 8.53457031 4.87109375 9.22851562 C6.5822665 14.54352188 8.6796936 18.32703958 13.32421875 21.67578125 C16.42482326 23.210241 19.4934013 24.21523876 22.8125 25.1875 C23.97394531 25.53167969 25.13539063 25.87585938 26.33203125 26.23046875 C27.21246094 26.48441406 28.09289062 26.73835937 29 27 C28.505 28.485 28.505 28.485 28 30 C25.33984375 30.703125 25.33984375 30.703125 21.9375 31.25 C15.3188207 32.65066349 11.26078034 34.71873647 7 40 C4.19802222 44.3586321 2.48612632 49.0462456 1 54 C0.01 54 -0.98 54 -2 54 C-2.24234375 53.20335937 -2.4846875 52.40671875 -2.734375 51.5859375 C-5.39167461 43.18478259 -7.58262677 37.20445525 -15 32 C-18.55342653 30.67584099 -18.55342653 30.67584099 -22.3125 29.75 C-24.19388672 29.24726562 -24.19388672 29.24726562 -26.11328125 28.734375 C-27.06589844 28.49203125 -28.01851563 28.2496875 -29 28 C-29 27.01 -29 26.02 -29 25 C-27.91460937 24.69707031 -26.82921875 24.39414062 -25.7109375 24.08203125 C-24.26539716 23.6596331 -22.82009711 23.23641202 -21.375 22.8125 C-20.30572266 22.51762695 -20.30572266 22.51762695 -19.21484375 22.21679688 C-13.43059399 20.49213525 -9.139007 18.1437855 -5.64453125 13.0078125 C-5.36996094 12.38648438 -5.09539062 11.76515625 -4.8125 11.125 C-4.50441406 10.44695313 -4.19632813 9.76890625 -3.87890625 9.0703125 C-3.58886719 8.38710938 -3.29882812 7.70390625 -3 7 C-2.69964844 6.31679688 -2.39929688 5.63359375 -2.08984375 4.9296875 C-1.3775959 3.29317384 -0.68645754 1.64749811 0 0 Z " fill="#599DDD" transform="translate(136,545)"/>
<path d="M0 0 C0.66 0 1.32 0 2 0 C2.24234375 0.94101562 2.4846875 1.88203125 2.734375 2.8515625 C3.06953125 4.09679687 3.4046875 5.34203125 3.75 6.625 C4.23726562 8.46964844 4.23726562 8.46964844 4.734375 10.3515625 C6.41034603 15.18291108 8.11280817 18.83531653 12.55078125 21.57421875 C13.46214844 21.94160156 14.37351563 22.30898438 15.3125 22.6875 C16.75496094 23.28691406 16.75496094 23.28691406 18.2265625 23.8984375 C19.14179687 24.26195312 20.05703125 24.62546875 21 25 C22.39750027 25.6003008 23.79365524 26.20375963 25.1875 26.8125 C26.115625 27.204375 27.04375 27.59625 28 28 C24.27534407 30.00890007 20.50856077 31.03506382 16.4375 32.12109375 C13.85451496 33.05245855 12.15640006 34.33157841 10 36 C9.34 36 8.68 36 8 36 C6.15819755 39.47704761 4.77174861 43.07434577 3.375 46.75 C2.92898437 47.92046875 2.48296875 49.0909375 2.0234375 50.296875 C1.68570313 51.18890625 1.34796875 52.0809375 1 53 C0.34 53 -0.32 53 -1 53 C-1.391875 52.05125 -1.78375 51.1025 -2.1875 50.125 C-2.78889463 48.74878531 -3.39342117 47.37393758 -4 46 C-4.35191406 45.16984375 -4.70382813 44.3396875 -5.06640625 43.484375 C-7.68773315 37.70534407 -10.1067237 33.67975225 -16 31 C-19.62747692 29.79573641 -23.27006125 28.82962471 -27 28 C-27 27.01 -27 26.02 -27 25 C-25.97519531 24.69707031 -24.95039062 24.39414062 -23.89453125 24.08203125 C-22.53359972 23.65967319 -21.17293647 23.23644997 -19.8125 22.8125 C-19.13896484 22.61591797 -18.46542969 22.41933594 -17.77148438 22.21679688 C-10.22105407 19.822758 -6.69269097 15.03845661 -3.0703125 8.2265625 C-1.7841067 5.5508789 -0.80562786 2.85631696 0 0 Z " fill="#5A9DDD" transform="translate(88,426)"/>
<path d="M0 0 C0.33 1.65 0.66 3.3 1 5 C0.236875 5.37125 -0.52625 5.7425 -1.3125 6.125 C-4.53103982 8.3704929 -5.37742102 10.48837747 -7 14 C-5.43910974 15.41844009 -3.8762111 16.83467025 -2.3125 18.25 C-1.00732422 19.43335938 -1.00732422 19.43335938 0.32421875 20.640625 C2.10741404 22.2129607 3.94552187 23.72511746 5.83203125 25.171875 C6.54746094 25.77515625 7.26289062 26.3784375 8 27 C8 27.66 8 28.32 8 29 C-3.33183857 32.78295964 -3.33183857 32.78295964 -7.421875 30.86328125 C-9.14303979 29.33770337 -10.61244369 27.83157433 -12 26 C-12 28.64 -12 31.28 -12 34 C-15.96 34.66 -19.92 35.32 -24 36 C-25.00697967 31.93911474 -26.00582623 27.87652113 -27 23.8125 C-27.28617187 22.66201172 -27.57234375 21.51152344 -27.8671875 20.32617188 C-28.13789063 19.21435547 -28.40859375 18.10253906 -28.6875 16.95703125 C-28.93886719 15.93585205 -29.19023437 14.91467285 -29.44921875 13.86254883 C-30 11 -30 11 -30 6 C-24.555 5.01 -24.555 5.01 -19 4 C-17.68 7.3 -16.36 10.6 -15 14 C-14.44570313 13.07316406 -13.89140625 12.14632812 -13.3203125 11.19140625 C-12.58880774 9.98160991 -11.85702232 8.77198324 -11.125 7.5625 C-10.76019531 6.95083984 -10.39539063 6.33917969 -10.01953125 5.70898438 C-6.98856922 0.72167413 -5.76454979 -0.15169868 0 0 Z " fill="#579ADD" transform="translate(528,531)"/>
<path d="M0 0 C1.32 0 2.64 0 4 0 C4.84126612 4.06089895 5.67161887 8.12395474 6.5 12.1875 C6.73847656 13.33798828 6.97695313 14.48847656 7.22265625 15.67382812 C7.44824219 16.78564453 7.67382812 17.89746094 7.90625 19.04296875 C8.11572266 20.06414795 8.32519531 21.08532715 8.54101562 22.13745117 C8.97101791 24.81924732 9.08705161 27.29051865 9 30 C4.9209026 31.43800641 1.33821156 32.26988874 -3 32 C-7.30495228 29.22641134 -10.53274312 25.73488391 -14 22 C-14.99 21.34 -15.98 20.68 -17 20 C-16.84402344 20.99902344 -16.68804687 21.99804688 -16.52734375 23.02734375 C-16.33269531 24.31769531 -16.13804687 25.60804688 -15.9375 26.9375 C-15.74027344 28.22527344 -15.54304688 29.51304687 -15.33984375 30.83984375 C-15.22769531 31.88269531 -15.11554688 32.92554688 -15 34 C-16 35 -16 35 -18.5625 35.0625 C-19.366875 35.041875 -20.17125 35.02125 -21 35 C-21.83963669 30.91793652 -22.67061559 26.8341578 -23.5 22.75 C-23.73847656 21.59113281 -23.97695313 20.43226563 -24.22265625 19.23828125 C-24.44824219 18.12324219 -24.67382812 17.00820313 -24.90625 15.859375 C-25.11572266 14.83295898 -25.32519531 13.80654297 -25.54101562 12.74902344 C-26 10 -26 10 -26 6 C-21.82445023 4.40931437 -18.44382761 3.20011103 -14 4 C-11.08012768 6.07197483 -8.57640578 8.52249655 -6 11 C-4.67461313 12.15501578 -3.34185951 13.30166336 -2 14.4375 C-1.01 15.283125 -0.02 16.12875 1 17 C0.855625 16.34773437 0.71125 15.69546875 0.5625 15.0234375 C-0.44056732 10.3006622 -1.37368921 5.85795969 -1 1 C-0.67 0.67 -0.34 0.34 0 0 Z " fill="#579ADD" transform="translate(475,542)"/>
<path d="M0 0 C1.07206503 3.51229353 2.10200683 7.03563055 3.125 10.5625 C3.42792969 11.55314453 3.73085938 12.54378906 4.04296875 13.56445312 C5.73025814 19.469966 6.60459428 23.32137876 4 29 C-1.26877679 33.64154146 -7.37810154 35.04563127 -14.25 35.25 C-17.72321906 35.01845206 -19.18651969 34.84663344 -22 33 C-22.98901367 31.23168945 -22.98901367 31.23168945 -23.66796875 29.11328125 C-23.92126953 28.33919922 -24.17457031 27.56511719 -24.43554688 26.76757812 C-24.68369141 25.95740234 -24.93183594 25.14722656 -25.1875 24.3125 C-25.44724609 23.52166016 -25.70699219 22.73082031 -25.97460938 21.91601562 C-27.45618816 17.27986081 -28.46258312 12.83675192 -29 8 C-27.75336669 7.49166409 -26.50250613 6.99368855 -25.25 6.5 C-24.55390625 6.2215625 -23.8578125 5.943125 -23.140625 5.65625 C-21 5 -21 5 -17 5 C-16.18686324 7.9164905 -15.3744665 10.83318369 -14.5625 13.75 C-14.33240234 14.575 -14.10230469 15.4 -13.86523438 16.25 C-13.64287109 17.04921875 -13.42050781 17.8484375 -13.19140625 18.671875 C-12.98717041 19.4050293 -12.78293457 20.13818359 -12.57250977 20.89355469 C-12.0209437 22.92294147 -11.50244018 24.95795396 -11 27 C-6.33094366 26.69018827 -6.33094366 26.69018827 -2.23535156 24.69897461 C-0.5678347 22.81965877 -0.5678347 22.81965877 -1.546875 19.12890625 C-1.93021141 17.60221576 -2.33205958 16.08008244 -2.75 14.5625 C-3.04390625 13.4168457 -3.04390625 13.4168457 -3.34375 12.24804688 C-3.71189333 10.81900403 -4.08711196 9.39175173 -4.47167969 7.96704102 C-5.00445565 5.98341073 -5.50703049 3.99385579 -6 2 C-2.25 0 -2.25 0 0 0 Z " fill="#579ADD" transform="translate(576,518)"/>
<path d="M0 0 C1.58475045 2.99925342 3.16753521 5.99954008 4.75 9 C5.1934375 9.83917969 5.636875 10.67835938 6.09375 11.54296875 C6.97600058 13.21665 7.8542896 14.89242577 8.72851562 16.5703125 C9.55796314 18.15530898 10.39988924 19.73385583 11.25585938 21.3046875 C12.24567842 23.16507028 13.1324325 25.07955931 14 27 C13.67 27.99 13.34 28.98 13 30 C9.04 30.33 5.08 30.66 1 31 C0.34 29.35 -0.32 27.7 -1 26 C-5.95 26.495 -5.95 26.495 -11 27 C-11.99 29.475 -11.99 29.475 -13 32 C-14.65 32 -16.3 32 -18 32 C-16.56432646 25.28874141 -14.90670072 18.67282148 -13.0625 12.0625 C-12.68448242 10.64614258 -12.68448242 10.64614258 -12.29882812 9.20117188 C-11.92081055 7.85055664 -11.92081055 7.85055664 -11.53515625 6.47265625 C-11.20076538 5.25461304 -11.20076538 5.25461304 -10.85961914 4.01196289 C-8.74751351 -0.93148003 -4.62642952 -0.17458225 0 0 Z M-7 13 C-8.76462683 16.08809695 -9 17.23312136 -9 21 C-7.35 20.67 -5.7 20.34 -4 20 C-4.66 17.69 -5.32 15.38 -6 13 C-6.33 13 -6.66 13 -7 13 Z " fill="#579BDD" transform="translate(305,567)"/>
<path d="M0 0 C2.49626975 3.03168137 4.14948848 6.55074723 6 10 C6.78455761 11.30457461 7.57805248 12.60380289 8.37890625 13.8984375 C8.997052 14.89991821 8.997052 14.89991821 9.62768555 15.92163086 C10.45090772 17.25209581 11.27654397 18.58107047 12.10473633 19.90844727 C15 24.66552892 15 24.66552892 15 28 C11.04 28.66 7.08 29.32 3 30 C2.34 28.68 1.68 27.36 1 26 C-2.63 26 -6.26 26 -10 26 C-10 27.65 -10 29.3 -10 31 C-13 33 -13 33 -16 33 C-15.26734562 26.06083669 -13.89372905 19.32021002 -12.4375 12.5 C-12.20353516 11.39140625 -11.96957031 10.2828125 -11.72851562 9.140625 C-11.1552633 6.42645073 -10.57902176 3.71294824 -10 1 C-3.20699708 -0.70553936 -3.20699708 -0.70553936 0 0 Z M-7 12 C-7.33 14.97 -7.66 17.94 -8 21 C-6.02 20.67 -4.04 20.34 -2 20 C-3.32 17.36 -4.64 14.72 -6 12 C-6.33 12 -6.66 12 -7 12 Z " fill="#579BDD" transform="translate(420,553)"/>
<path d="M0 0 C-3 1 -3 1 -4.7265625 0.29296875 C-5.35304688 -0.07183594 -5.97953125 -0.43664062 -6.625 -0.8125 C-10.94736689 -3.13436623 -15.19330032 -4.15437691 -20 -5 C-20 -5.66 -20 -6.32 -20 -7 C-21.010625 -6.979375 -22.02125 -6.95875 -23.0625 -6.9375 C-27 -7 -27 -7 -30.1875 -7.5625 C-38.43540302 -8.50898067 -45.6323444 -7.63072324 -53.0546875 -3.90625 C-55.63040806 -2.70631593 -58.20542296 -2.46576284 -61 -2 C-68.4023562 0.74906344 -74.68096934 4.056288 -79.59765625 10.38671875 C-81.18604629 12.21403097 -82.92369677 13.61174829 -84.8125 15.125 C-91.74540704 21.01862876 -98.31129571 30.03122949 -99.375 39.25 C-99.90969549 42.45817294 -100.501264 44.28386418 -101.875 47.125 C-105.53320534 54.94875302 -107.35831487 63.34967797 -107.046875 71.9765625 C-106.96846569 75.36123097 -107.50451225 78.66226381 -108 82 C-108.16886719 83.19238281 -108.33773437 84.38476562 -108.51171875 85.61328125 C-109.00246034 89.0763159 -109.49923524 92.53840281 -110 96 C-110.33 96 -110.66 96 -111 96 C-111.02886338 91.52084672 -111.04675187 87.04171709 -111.0625 82.5625 C-111.07506836 80.6434082 -111.07506836 80.6434082 -111.08789062 78.68554688 C-111.09111328 77.47060547 -111.09433594 76.25566406 -111.09765625 75.00390625 C-111.10289307 73.87799072 -111.10812988 72.7520752 -111.11352539 71.59204102 C-111 69 -111 69 -110 68 C-109.68561732 66.21141746 -109.37709697 64.4215921 -109.09936523 62.62695312 C-107.6755758 53.4494313 -105.65042311 44.57789192 -102 36 C-101.01 35.505 -101.01 35.505 -100 35 C-99.85175781 34.2575 -99.70351562 33.515 -99.55078125 32.75 C-97.04491856 20.23845862 -82.44170361 7.10207483 -72.61328125 -0.359375 C-67.71256157 -3.43606 -62.48317022 -5.23306097 -57 -7 C-55.8965625 -7.39316406 -54.793125 -7.78632812 -53.65625 -8.19140625 C-34.43152693 -14.51880937 -16.83695567 -10.97794179 0 0 Z " fill="#528EC6" transform="translate(346,127)"/>
<path d="M0 0 C0.33 0.99 0.66 1.98 1 3 C-0.16514221 4.69113267 -1.34171342 6.37591736 -2.58398438 8.01123047 C-4.92946451 11.30541688 -6.55796598 14.90184948 -8.25 18.5625 C-8.600625 19.29146484 -8.95125 20.02042969 -9.3125 20.77148438 C-11.23363021 24.87605297 -12.39748971 28.47124135 -13 33 C-13.474375 34.051875 -13.94875 35.10375 -14.4375 36.1875 C-18.6674653 45.75442152 -18.28796369 56.2620512 -18.20581055 66.50878906 C-18.18737322 68.89138346 -18.18530275 71.27359112 -18.18554688 73.65625 C-18.1806364 75.18489918 -18.17481014 76.71354575 -18.16796875 78.2421875 C-18.16685593 78.94745575 -18.1657431 79.652724 -18.16459656 80.37936401 C-18.1294109 84.04605991 -17.84577781 87.43198842 -17 91 C-16.25432366 95.83861093 -15.61011457 100.21261685 -17 105 C-17.33 105 -17.66 105 -18 105 C-26.73074181 70.07703278 -21.86488411 35.81475613 -3.76953125 4.8359375 C-2 2 -2 2 0 0 Z " fill="#4B89C1" transform="translate(152,366)"/>
<path d="M0 0 C0.66 0.33 1.32 0.66 2 1 C2.51494416 3.08656563 2.93557677 5.19664261 3.3125 7.3125 C5.21148529 16.67382947 7.82875427 26.31770284 15 33 C17.89748202 34.90249763 20.88354522 36.48784194 24 38 C25.093125 38.53625 26.18625 39.0725 27.3125 39.625 C32.43519729 41.53515831 37.67903261 42.76805188 43 44 C43 45.32 43 46.64 43 48 C38.125 46.125 38.125 46.125 37 45 C35.67274963 44.70077614 34.33767714 44.43599211 33 44.1875 C27.25852544 42.97490057 22.2216411 40.61082055 17 38 C17 37.34 17 36.68 17 36 C16.01 36 15.02 36 14 36 C14 35.34 14 34.68 14 34 C13.3915625 33.73960937 12.783125 33.47921875 12.15625 33.2109375 C6.56723062 30.07217661 4.69864863 23.35702431 2.9375 17.5625 C2.65777344 16.53253906 2.37804687 15.50257813 2.08984375 14.44140625 C1.25860002 11.81772634 1.25860002 11.81772634 -1.12109375 11.15234375 C-1.74113281 11.10207031 -2.36117187 11.05179687 -3 11 C-3.103125 11.680625 -3.20625 12.36125 -3.3125 13.0625 C-4.70869261 19.02805023 -7.33203056 24.14881461 -11 29 C-11.66 29 -12.32 29 -13 29 C-13.33 29.99 -13.66 30.98 -14 32 C-14.99 32 -15.98 32 -17 32 C-17.33 32.99 -17.66 33.98 -18 35 C-20.0625 35.6875 -20.0625 35.6875 -22 36 C-20.84917275 32.54751824 -20.2524573 32.31347275 -17.3125 30.4375 C-9.36810718 24.62106954 -6.39351601 16.11000872 -3.64770508 7.00219727 C-2.18653438 2.18653438 -2.18653438 2.18653438 0 0 Z " fill="#508CC1" transform="translate(122,263)"/>
<path d="M0 0 C0.33 0 0.66 0 1 0 C1.01458252 0.74233887 1.02916504 1.48467773 1.04418945 2.24951172 C1.36693769 17.10505437 2.03301156 31.68972737 3.98364258 46.43310547 C6.15978974 63.05999886 6.15978974 63.05999886 2.875 68.9375 C2.41996094 69.76636719 1.96492188 70.59523438 1.49609375 71.44921875 C1.00238281 72.29097656 0.50867188 73.13273437 0 74 C-0.50402344 74.87269531 -1.00804687 75.74539063 -1.52734375 76.64453125 C-2.98496678 79.11841054 -4.48769999 81.55931581 -6 84 C-6.3609375 84.63550781 -6.721875 85.27101563 -7.09375 85.92578125 C-8.66642223 88.58283634 -9.6729266 89.8643842 -12.5625 91.0625 C-15 91 -15 91 -16.75 89.9375 C-18.40972267 87.36492987 -18.6652378 85.0128598 -19 82 C-16 84 -16 84 -15.3125 86.625 C-15.209375 87.40875 -15.10625 88.1925 -15 89 C-10.40547717 86.95798985 -9.0763278 84.61783538 -7.10546875 80.2578125 C-5.50174794 76.98236859 -3.44349976 74.0688753 -1.3671875 71.078125 C5.47266069 60.68155575 1.65895143 44.88244705 -0.52514648 33.18823242 C-1.03242556 29.78229027 -1.12951369 26.54824805 -1.1328125 23.10546875 C-1.13474609 21.17864258 -1.13474609 21.17864258 -1.13671875 19.21289062 C-1.13462402 18.55264893 -1.1325293 17.89240723 -1.13037109 17.2121582 C-1.12496915 15.17586986 -1.13035919 13.1397976 -1.13671875 11.10351562 C-1.13542969 9.82541016 -1.13414062 8.54730469 -1.1328125 7.23046875 C-1.13168457 6.05895264 -1.13055664 4.88743652 -1.12939453 3.68041992 C-1 1 -1 1 0 0 Z " fill="#4788C7" transform="translate(264,207)"/>
<path d="M0 0 C4.34275059 1.4975002 5.02231566 4.03525841 7 8 C13.0890557 16.80399247 20.45828477 27.13901563 29.79296875 32.6484375 C30.88544922 33.31746094 30.88544922 33.31746094 32 34 C32 34.66 32 35.32 32 36 C32.86238281 36.18949219 32.86238281 36.18949219 33.7421875 36.3828125 C36.02959105 37.0080889 37.9861799 37.85689006 40.125 38.875 C44.96467025 41.07557494 49.89769589 42.54344481 55 44 C57.00382009 44.65509503 59.00458132 45.31974363 61 46 C62.11375 46.37125 63.2275 46.7425 64.375 47.125 C65.24125 47.41375 66.1075 47.7025 67 48 C60.04474579 50.52449968 50.61515784 46.91681025 44.125 44.0625 C42.74596795 43.38312392 41.37068991 42.69605347 40 42 C39.360625 41.72671875 38.72125 41.4534375 38.0625 41.171875 C31.52391951 38.27169817 26.33401851 33.69174316 21 29 C20.29746094 28.38253906 19.59492188 27.76507813 18.87109375 27.12890625 C11.38212502 20.09381441 4.93399702 10.98977451 0 2 C0 1.34 0 0.68 0 0 Z " fill="#4B96D5" transform="translate(432,280)"/>
<path d="M0 0 C0.66 0 1.32 0 2 0 C2.24234375 0.94101562 2.4846875 1.88203125 2.734375 2.8515625 C3.06953125 4.09679687 3.4046875 5.34203125 3.75 6.625 C4.07484375 7.85476563 4.3996875 9.08453125 4.734375 10.3515625 C6.41034603 15.18291108 8.11280817 18.83531653 12.55078125 21.57421875 C13.91783203 22.12529297 13.91783203 22.12529297 15.3125 22.6875 C16.75496094 23.28691406 16.75496094 23.28691406 18.2265625 23.8984375 C19.14179687 24.26195312 20.05703125 24.62546875 21 25 C22.39750027 25.6003008 23.79365524 26.20375963 25.1875 26.8125 C26.115625 27.204375 27.04375 27.59625 28 28 C24.27534407 30.00890007 20.50856077 31.03506382 16.4375 32.12109375 C13.85451496 33.05245855 12.15640006 34.33157841 10 36 C9.34 36 8.68 36 8 36 C7.566875 36.928125 7.566875 36.928125 7.125 37.875 C6 40 6 40 4 42 C4.55844349 36.97400858 8.3298524 34.45464468 11.9375 31.3125 C14.50231542 29.68034473 17.09501915 28.8582898 20 28 C18.68 27.67 17.36 27.34 16 27 C16 26.34 16 25.68 16 25 C14.6696875 24.690625 14.6696875 24.690625 13.3125 24.375 C7.15659918 21.81972041 4.80545359 16.74450022 2 11 C1.34 10.67 0.68 10.34 0 10 C-0.33 10.66 -0.66 11.32 -1 12 C-2.9375 14.625 -2.9375 14.625 -5 17 C-5.66 17 -6.32 17 -7 17 C-5.49637741 13.21283842 -3.94512999 9.44754813 -2.375 5.6875 C-1.92898437 4.61886719 -1.48296875 3.55023438 -1.0234375 2.44921875 C-0.68570313 1.64097656 -0.34796875 0.83273437 0 0 Z " fill="#4989C5" transform="translate(88,426)"/>
<path d="M0 0 C0.66 0 1.32 0 2 0 C1.03200694 2.60613516 0.0331119 4.94673304 -1.4375 7.3125 C-3.70362685 11.21023819 -5.37708445 15.40074331 -6.4296875 19.79296875 C-7.08769729 22.33937649 -7.94915143 24.79746893 -8.81567383 27.27929688 C-11.31405295 34.47405829 -13 40.83041826 -13 48.5 C-13 52.40503044 -13.44414831 56.14568776 -14 60 C-14.16886719 61.19496094 -14.33773437 62.38992187 -14.51171875 63.62109375 C-15.00306589 67.0814321 -15.49960518 70.5409601 -16 74 C-16.33 74 -16.66 74 -17 74 C-17.02886338 69.52084672 -17.04675187 65.04171709 -17.0625 60.5625 C-17.07087891 59.28310547 -17.07925781 58.00371094 -17.08789062 56.68554688 C-17.09111328 55.47060547 -17.09433594 54.25566406 -17.09765625 53.00390625 C-17.10289307 51.87799072 -17.10812988 50.7520752 -17.11352539 49.59204102 C-17 47 -17 47 -16 46 C-15.68561732 44.21141746 -15.37709697 42.4215921 -15.09936523 40.62695312 C-13.6755758 31.4494313 -11.65042311 22.57789192 -8 14 C-7.34 13.67 -6.68 13.34 -6 13 C-5.8453125 11.9790625 -5.8453125 11.9790625 -5.6875 10.9375 C-4.71923397 6.80036333 -2.64555665 3.32136863 0 0 Z " fill="#538FCD" transform="translate(252,149)"/>
<path d="M0 0 C0.66 0.33 1.32 0.66 2 1 C-6.30254042 9.6484796 -6.30254042 9.6484796 -10.9375 12.9375 C-18.50455826 18.40511495 -24.77746112 25.06406423 -29.69921875 32.98046875 C-30.89473956 34.83657763 -32.15834874 36.41860991 -33.625 38.0625 C-36.43641046 41.53977083 -38.11617807 44.95327142 -40 49 C-40.66 48.34 -41.32 47.68 -42 47 C-31.13276386 28.3319036 -17.76195149 12.51988558 0 0 Z " fill="#508AC6" transform="translate(317,237)"/>
<path d="M0 0 C0.66 0 1.32 0 2 0 C0.40052629 5.11831588 -2.63462991 8.92053332 -6 13 C-6.51949219 13.64066406 -7.03898437 14.28132813 -7.57421875 14.94140625 C-14.81118048 22.99150974 -25.82999187 29.34922785 -36 33 C-36 32.01 -36 31.02 -36 30 C-33.03 29.01 -30.06 28.02 -27 27 C-27 26.34 -27 25.68 -27 25 C-25.96939453 24.51080078 -25.96939453 24.51080078 -24.91796875 24.01171875 C-23.56638672 23.35623047 -23.56638672 23.35623047 -22.1875 22.6875 C-21.29417969 22.25824219 -20.40085938 21.82898438 -19.48046875 21.38671875 C-17.19714024 20.11021226 -15.80235146 18.8456512 -14 17 C-13.34 17 -12.68 17 -12 17 C-11.34 15.68 -10.68 14.36 -10 13 C-9.34 13 -8.68 13 -8 13 C-7.67 11.68 -7.34 10.36 -7 9 C-6.34 9 -5.68 9 -5 9 C-4.731875 8.443125 -4.46375 7.88625 -4.1875 7.3125 C-2.89100504 4.78774666 -1.57523677 2.36285516 0 0 Z " fill="#418ACC" transform="translate(241,382)"/>
<path d="M0 0 C0.33 0.66 0.66 1.32 1 2 C0.1409631 4.22926125 -0.77659895 6.38386964 -1.75 8.5625 C-4.19244543 14.31404227 -5.82845103 19.90151761 -6.875 26.0625 C-6.99456055 26.76383057 -7.11412109 27.46516113 -7.23730469 28.18774414 C-7.85625204 32.15614888 -8.11269097 35.9869494 -8 40 C-8.99 40.495 -8.99 40.495 -10 41 C-11.1166777 34.66486116 -10.75175197 29.52478487 -9.4375 23.25 C-9.25985107 22.37690186 -9.08220215 21.50380371 -8.89916992 20.60424805 C-7.36752577 13.62044166 -5.21451344 5.21451344 0 0 Z " fill="#4084BB" transform="translate(274,164)"/>
<path d="M0 0 C2.34192842 3.51289264 2.22456633 4.8783872 2.16015625 9.0234375 C2.14919922 10.209375 2.13824219 11.3953125 2.12695312 12.6171875 C2.10568359 13.85726563 2.08441406 15.09734375 2.0625 16.375 C2.02796977 18.82025209 1.99785254 21.26557142 1.97265625 23.7109375 C1.95468994 24.79681152 1.93672363 25.88268555 1.91821289 27.00146484 C1.99473907 29.80712026 2.36931147 32.2730342 3 35 C3.74567634 39.83861093 4.38988543 44.21261685 3 49 C2.67 49 2.34 49 2 49 C-1.06559302 36.9420008 -1.15099466 25.05941656 -0.5625 12.6875 C-0.51029297 11.45837891 -0.45808594 10.22925781 -0.40429688 8.96289062 C-0.2764057 5.97488761 -0.14155316 2.98738152 0 0 Z " fill="#5394D2" transform="translate(132,422)"/>
<path d="M0 0 C3.05127555 2.80720616 4.95980283 5.42434922 6.796875 9.1328125 C7.28027344 10.10347656 7.76367188 11.07414063 8.26171875 12.07421875 C8.75285156 13.08097656 9.24398438 14.08773437 9.75 15.125 C10.25660156 16.13949219 10.76320313 17.15398437 11.28515625 18.19921875 C15 25.71902375 15 25.71902375 15 28 C18.63 28.33 22.26 28.66 26 29 C26 29.33 26 29.66 26 30 C17.62090419 31.39651597 17.62090419 31.39651597 14 29 C10.85795125 25.12807024 8.72303344 20.60907546 6.890625 15.99609375 C5.26177588 12.34547137 3.19558886 8.91737621 1.20703125 5.453125 C0 3 0 3 0 0 Z " fill="#4D91CB" transform="translate(395,185)"/>
<path d="M0 0 C0.66 0 1.32 0 2 0 C0.84423221 6.62826955 -5.2301587 10.55573674 -10.40234375 14.30859375 C-11.90908207 15.3587447 -13.42085366 16.40170983 -14.9375 17.4375 C-15.71673828 17.97826172 -16.49597656 18.51902344 -17.29882812 19.07617188 C-19.19487535 20.39060952 -21.09516465 21.69834647 -23 23 C-23.66 22.34 -24.32 21.68 -25 21 C-24.34773438 20.55269531 -23.69546875 20.10539062 -23.0234375 19.64453125 C-17.12174727 15.57624637 -17.12174727 15.57624637 -11.5625 11.0625 C-9 9 -9 9 -6 9 C-5.7525 8.443125 -5.505 7.88625 -5.25 7.3125 C-3.77075182 4.57589087 -2.06532561 2.32349131 0 0 Z " fill="#4F98D0" transform="translate(413,342)"/>
<path d="M0 0 C0 0.66 0 1.32 0 2 C-1.01320313 2.18175781 -1.01320313 2.18175781 -2.046875 2.3671875 C-2.93890625 2.53476562 -3.8309375 2.70234375 -4.75 2.875 C-6.07257813 3.11863281 -6.07257813 3.11863281 -7.421875 3.3671875 C-9.89403973 3.97399157 -11.77640488 4.78671054 -14 6 C-18.41145487 8.04234022 -22.22677368 9.23628379 -27 10 C-30.02805429 10.9213652 -33.01592217 11.94562583 -36 13 C-32.93201828 9.48606109 -30.28560904 8.09580814 -25.87890625 6.640625 C-24.69619141 6.24746094 -23.51347656 5.85429687 -22.29492188 5.44921875 C-21.06322266 5.05347656 -19.83152344 4.65773438 -18.5625 4.25 C-17.33466797 3.83878906 -16.10683594 3.42757813 -14.84179688 3.00390625 C-4.87029159 -0.263838 -4.87029159 -0.263838 0 0 Z " fill="#4D8BC9" transform="translate(236,313)"/>
<path d="M0 0 C0.99 0.66 1.98 1.32 3 2 C-2.79799884 6.0333905 -7.01370081 6.50604984 -14 6 C-14 6.66 -14 7.32 -14 8 C-12.35 8 -10.7 8 -9 8 C-8.67 8.99 -8.34 9.98 -8 11 C-9.45903258 10.69078116 -10.91720722 10.37751201 -12.375 10.0625 C-13.18710938 9.88847656 -13.99921875 9.71445312 -14.8359375 9.53515625 C-17 9 -17 9 -19 8 C-19 7.34 -19 6.68 -19 6 C-17.79601562 5.65066406 -16.59203125 5.30132812 -15.3515625 4.94140625 C-13.7760125 4.48187083 -12.20049325 4.02222994 -10.625 3.5625 C-9.8309375 3.33240234 -9.036875 3.10230469 -8.21875 2.86523438 C-7.45820312 2.64287109 -6.69765625 2.42050781 -5.9140625 2.19140625 C-4.8614624 1.88505249 -4.8614624 1.88505249 -3.78759766 1.57250977 C-1.92489242 1.02623679 -1.92489242 1.02623679 0 0 Z " fill="#5B93C4" transform="translate(94,299)"/>
<path d="M0 0 C5.81830767 0.50675583 10.20412773 2.89898308 15.25 5.625 C16.08958252 6.07214355 16.92916504 6.51928711 17.79418945 6.97998047 C23.8523328 10.25563517 29.55207057 13.77050209 35 18 C34.01 18.495 34.01 18.495 33 19 C30.64453125 17.70703125 30.64453125 17.70703125 27.8125 15.8125 C26.33136719 14.84376953 26.33136719 14.84376953 24.8203125 13.85546875 C23.88960938 13.24316406 22.95890625 12.63085938 22 12 C17.67547796 9.23393779 14.09669149 7.81083728 9 7 C7.97895449 6.02149805 6.9793879 5.02019573 6 4 C2.89992799 2.79950593 2.89992799 2.79950593 0 2 C0 1.34 0 0.68 0 0 Z " fill="#528ECA" transform="translate(454,223)"/>
<path d="M0 0 C1.32 0 2.64 0 4 0 C4 0.66 4 1.32 4 2 C4.89537476 2.17438599 4.89537476 2.17438599 5.80883789 2.35229492 C9.32098268 3.39048101 11.74206819 5.93127852 14.4375 8.3125 C15.56069065 9.28834458 16.68438131 10.26361399 17.80859375 11.23828125 C18.34830811 11.71185059 18.88802246 12.18541992 19.4440918 12.67333984 C20.83027608 13.85528326 22.27903392 14.96292982 23.734375 16.05859375 C26.15226948 18.1304792 27.36325404 19.93432214 28.8125 22.75 C29.23144531 23.54921875 29.65039062 24.3484375 30.08203125 25.171875 C30.38496094 25.77515625 30.68789063 26.3784375 31 27 C30.34 27 29.68 27 29 27 C26 23.53846154 26 23.53846154 26 21 C25.4225 20.773125 24.845 20.54625 24.25 20.3125 C22 19 22 19 20.15625 16.66796875 C14.75800369 9.98861689 7.25379232 5.43287308 0 1 C0 0.67 0 0.34 0 0 Z " fill="#498FCB" transform="translate(324,148)"/>
<path d="M0 0 C0.33 0 0.66 0 1 0 C1.18490939 5.7066862 0.65548056 10.55890742 -0.8125 16.0625 C-0.97814453 16.73087891 -1.14378906 17.39925781 -1.31445312 18.08789062 C-2.47939834 22.61139487 -4.06981959 26.74696637 -6 31 C-7.3282512 27.01524639 -6.34387362 24.95416174 -5.1875 20.9375 C-3.69480199 15.6372384 -2.38128327 10.37565013 -1.39453125 4.953125 C-1 3 -1 3 0 0 Z " fill="#4384CC" transform="translate(430,301)"/>
<path d="M0 0 C0.66 0.33 1.32 0.66 2 1 C1.37351562 1.74765625 0.74703125 2.4953125 0.1015625 3.265625 C-0.71570313 4.25046875 -1.53296875 5.2353125 -2.375 6.25 C-3.59316406 7.71179688 -3.59316406 7.71179688 -4.8359375 9.203125 C-6.59873588 11.48139872 -7.74775478 13.4519532 -9 16 C-10 17 -11 18 -12 19 C-13.19599068 21.03232242 -13.19599068 21.03232242 -14.1875 23.1875 C-14.53167969 23.90292969 -14.87585938 24.61835938 -15.23046875 25.35546875 C-15.48441406 25.89816406 -15.73835938 26.44085938 -16 27 C-16.66 26.34 -17.32 25.68 -18 25 C-12.63185654 16.03476041 -7.41802277 7.45946424 0 0 Z " fill="#528ECE" transform="translate(293,259)"/>
<path d="M0 0 C0.99 0 1.98 0 3 0 C2.54997651 3.35533544 2.088474 6.70899819 1.625 10.0625 C1.49867188 11.00544922 1.37234375 11.94839844 1.2421875 12.91992188 C0.51883702 18.10996155 -0.40684931 23.00581892 -2 28 C-3.82264572 25.32854093 -4.02209979 24.16098381 -3.57421875 20.8984375 C-3.28160156 19.73570312 -2.98898438 18.57296875 -2.6875 17.375 C-1.31476575 11.56821264 -0.39750745 5.94890464 0 0 Z " fill="#3C83D2" transform="translate(246,354)"/>
<path d="M0 0 C0.99 0.33 1.98 0.66 3 1 C-0.90102388 3.78644563 -4.38486888 5.68139111 -9 7 C-8.01 7.99 -7.02 8.98 -6 10 C-8 11 -8 11 -10.1640625 10.44140625 C-10.97617188 10.15136719 -11.78828125 9.86132812 -12.625 9.5625 C-13.44226562 9.27503906 -14.25953125 8.98757813 -15.1015625 8.69140625 C-15.72804687 8.46324219 -16.35453125 8.23507812 -17 8 C-16 6 -16 6 -12.65625 4.74609375 C-11.27321468 4.30240323 -9.88765406 3.86652699 -8.5 3.4375 C-3.89415906 2.32246108 -3.89415906 2.32246108 0 0 Z " fill="#5290C5" transform="translate(77,445)"/>
<path d="M0 0 C0 0.66 0 1.32 0 2 C-1.9375 3.3125 -1.9375 3.3125 -5 5 C-5.70125 5.39574219 -6.4025 5.79148438 -7.125 6.19921875 C-19.21527778 13 -19.21527778 13 -22 13 C-22 12.34 -22 11.68 -22 11 C-19.04205036 9.35347636 -16.0835754 7.70789892 -13.125 6.0625 C-12.28324219 5.59392578 -11.44148438 5.12535156 -10.57421875 4.64257812 C-9.76855469 4.19462891 -8.96289062 3.74667969 -8.1328125 3.28515625 C-7.01737061 2.66459351 -7.01737061 2.66459351 -5.87939453 2.03149414 C-2.17798817 0 -2.17798817 0 0 0 Z " fill="#4D8ECB" transform="translate(342,224)"/>
<path d="M0 0 C2.78238211 3.24611246 4.47093777 6.03860711 6 10 C9.05820142 16.48124089 12.46334873 22.76947393 16 29 C15.34 29 14.68 29 14 29 C9.46453234 23.24390516 6.17369775 16.60376813 3.0625 10 C2.75610596 9.35345459 2.44971191 8.70690918 2.1340332 8.04077148 C0.82166081 5.17559495 0 3.18934161 0 0 Z " fill="#609BD9" transform="translate(139,480)"/>
<path d="M0 0 C0.33 0.99 0.66 1.98 1 3 C0.34 3 -0.32 3 -1 3 C-1.25007813 3.5878125 -1.50015625 4.175625 -1.7578125 4.78125 C-3.16426885 7.29341102 -4.66640992 8.66645352 -6.875 10.5 C-9.71084912 12.89758153 -12.42508238 15.31779415 -15 18 C-12.41575934 10.48582331 -6.37385896 4.58121113 0 0 Z " fill="#57A0D5" transform="translate(293,400)"/>
<path d="M0 0 C4.14673744 0.60981433 7.28555016 2.10325966 11 4 C12.33057933 4.34416207 13.66419816 4.67670087 15 5 C16.42366111 5.50139889 17.84062729 6.02224046 19.25 6.5625 C19.95640625 6.83191406 20.6628125 7.10132813 21.390625 7.37890625 C21.92171875 7.58386719 22.4528125 7.78882813 23 8 C23 8.66 23 9.32 23 10 C15.17071098 8.34535644 7.81631633 6.32986132 1 2 C0.67 1.34 0.34 0.68 0 0 Z " fill="#4893D8" transform="translate(269,379)"/>
<path d="M0 0 C0.66 0.33 1.32 0.66 2 1 C1.24074219 1.47050781 0.48148438 1.94101562 -0.30078125 2.42578125 C-1.29464844 3.04839844 -2.28851563 3.67101562 -3.3125 4.3125 C-4.29863281 4.92738281 -5.28476563 5.54226563 -6.30078125 6.17578125 C-8.52531651 7.67919364 -10.15121786 9.09824416 -12 11 C-15.16703108 13.08736139 -18.39292143 14.79764048 -22 16 C-22 15.34 -22 14.68 -22 14 C-20.0514639 12.46707129 -18.11631804 11.06652852 -16.0625 9.6875 C-15.17921021 9.08736084 -15.17921021 9.08736084 -14.27807617 8.47509766 C-4.09340826 1.62986965 -4.09340826 1.62986965 0 0 Z " fill="#5090CE" transform="translate(198,326)"/>
<path d="M0 0 C3.34517179 0.59114262 3.82590049 0.75850713 5.9375 3.6875 C6.9584375 5.3271875 6.9584375 5.3271875 8 7 C11.12483348 10.92607283 14.40827534 14.51089605 18 18 C15 18 15 18 12.94921875 16.34765625 C7.91438569 11.26064875 3.69765254 6.13375304 0 0 Z " fill="#4E96CC" transform="translate(251,360)"/>
<path d="M0 0 C0.72445312 0.26554688 1.44890625 0.53109375 2.1953125 0.8046875 C7.11057191 2.6003956 12.02146805 4.38534099 17 6 C16.67 6.99 16.34 7.98 16 9 C9.25 8.25 9.25 8.25 7 6 C5.989375 5.525625 4.97875 5.05125 3.9375 4.5625 C1 3 1 3 0 0 Z " fill="#4583CA" transform="translate(148,566)"/>
<path d="M0 0 C-1.66469861 1.10979907 -3.33308738 2.21431203 -5.015625 3.296875 C-10.02231771 6.55297586 -14.54656728 10.02033672 -19 14 C-18.41978222 10.7451198 -17.47352859 9.06347592 -15.125 6.75 C-14.61195313 6.22921875 -14.09890625 5.7084375 -13.5703125 5.171875 C-12 4 -12 4 -9 4 C-8.67 3.01 -8.34 2.02 -8 1 C-5.29120665 -0.35439668 -2.99066732 -0.06501451 0 0 Z " fill="#4E91C4" transform="translate(149,313)"/>
<path d="M0 0 C0.66 0 1.32 0 2 0 C3.14934774 9.3500992 2.67998124 17.73927697 1 27 C0.67 27 0.34 27 0 27 C0 18.09 0 9.18 0 0 Z " fill="#2C4E7B" transform="translate(235,196)"/>
<path d="M0 0 C1.32 0 2.64 0 4 0 C4 0.66 4 1.32 4 2 C5.0209375 2.061875 5.0209375 2.061875 6.0625 2.125 C10.25515787 3.37387681 12.8592439 6.04026731 16 9 C15.67 9.99 15.34 10.98 15 12 C14.33613281 11.44570313 13.67226562 10.89140625 12.98828125 10.3203125 C12.10527344 9.59585937 11.22226563 8.87140625 10.3125 8.125 C9.44238281 7.40570313 8.57226562 6.68640625 7.67578125 5.9453125 C5.1522354 4.11067624 2.93661514 3.00532771 0 2 C0 1.34 0 0.68 0 0 Z " fill="#528DBF" transform="translate(93,311)"/>
<path d="M0 0 C0.66 0 1.32 0 2 0 C2.31453125 1.02480469 2.6290625 2.04960938 2.953125 3.10546875 C3.38484559 4.46632713 3.81716934 5.82699427 4.25 7.1875 C4.45496094 7.86103516 4.65992188 8.53457031 4.87109375 9.22851562 C6.25859335 13.53817349 7.9007962 16.58955137 11 20 C10.67 20.66 10.34 21.32 10 22 C5.80892097 18.29494526 3.95537296 15.16178201 2.1875 9.875 C1.76855469 8.65554688 1.34960938 7.43609375 0.91796875 6.1796875 C0 3 0 3 0 0 Z " fill="#4888BE" transform="translate(136,545)"/>
<path d="M0 0 C0.66 0.99 1.32 1.98 2 3 C-2.16878449 9.82935021 -6.64378079 12.97609961 -14 16 C-14 15.01 -14 14.02 -14 13 C-13.22076172 12.67128906 -13.22076172 12.67128906 -12.42578125 12.3359375 C-7.23385503 9.97509859 -4.28405391 7.67728891 -1 3 C-0.67 2.01 -0.34 1.02 0 0 Z " fill="#4E88C0" transform="translate(132,554)"/>
<path d="M0 0 C0.66 0 1.32 0 2 0 C0.54974765 3.36638887 -1.29486453 5.48039225 -3.9375 8 C-6.57608636 10.5251518 -8.87974137 13.02233271 -11 16 C-11.66 15.67 -12.32 15.34 -13 15 C-11.59230365 13.20127688 -10.17348997 11.41125032 -8.75 9.625 C-7.96109375 8.62726563 -7.1721875 7.62953125 -6.359375 6.6015625 C-4.24403035 4.26907982 -2.89308764 3.10149667 0 2 C0 1.34 0 0.68 0 0 Z " fill="#4B8AC6" transform="translate(168,347)"/>
<path d="M0 0 C0.66 0.33 1.32 0.66 2 1 C-0.64 6.61 -3.28 12.22 -6 18 C-6.66 18 -7.32 18 -8 18 C-3.6 3.6 -3.6 3.6 0 0 Z " fill="#4F90C5" transform="translate(274,287)"/>
<path d="M0 0 C2.62391705 2.62391705 2.41250214 4.15638093 2.6875 7.8125 C2.77386719 8.85019531 2.86023438 9.88789063 2.94921875 10.95703125 C2.99708962 13.82560084 2.68244277 16.22404858 2 19 C1.67 19 1.34 19 1 19 C-0.93833398 12.36801431 -1.05268874 6.81402575 0 0 Z " fill="#4D89CB" transform="translate(133,452)"/>
<path d="M0 0 C0.33 0 0.66 0 1 0 C0.14285714 8.57142857 0.14285714 8.57142857 -2 12 C-2.99 11.67 -3.98 11.34 -5 11 C-5.33 9.35 -5.66 7.7 -6 6 C-4.68 6 -3.36 6 -2 6 C-2 5.01 -2 4.02 -2 3 C-1.34 3 -0.68 3 0 3 C0 2.01 0 1.02 0 0 Z " fill="#3C88C1" transform="translate(123,338)"/>
<path d="M0 0 C7.43047616 0.16887446 12.84932815 4.13184348 19 8 C16 9 16 9 14.16796875 8.29296875 C13.51441406 7.92816406 12.86085938 7.56335938 12.1875 7.1875 C8.86533577 5.41281338 5.6196096 4.08588288 2 3 C2 2.34 2 1.68 2 1 C1.34 0.67 0.68 0.34 0 0 Z " fill="#4D84C2" transform="translate(327,119)"/>
<path d="M0 0 C0.66 0 1.32 0 2 0 C2.98484108 1.74681293 3.96266187 3.4975851 4.9375 5.25 C5.48277344 6.22453125 6.02804688 7.1990625 6.58984375 8.203125 C7.76610835 10.53610409 8.52101691 12.45350762 9 15 C4.73347598 11.2075342 2.10519025 7.32766024 0 2 C0 1.34 0 0.68 0 0 Z " fill="#5292C9" transform="translate(126,282)"/>
<path d="M0 0 C-3.68022438 1.98042576 -6.83514689 2.50586489 -11 3 C-12.9490625 3.2784375 -12.9490625 3.2784375 -14.9375 3.5625 C-15.948125 3.706875 -16.95875 3.85125 -18 4 C-18 3.34 -18 2.68 -18 2 C-11.84629161 0.176679 -6.40353322 -0.2361959 0 0 Z " fill="#4889C7" transform="translate(379,215)"/>
<path d="M0 0 C0.66 0 1.32 0 2 0 C3.77643163 2.23753535 5.43237932 4.47222773 7.0625 6.8125 C7.75182617 7.77639648 7.75182617 7.77639648 8.45507812 8.75976562 C10.41918817 11.5429759 11.91267621 13.73802864 13 17 C12.34 17 11.68 17 11 17 C9.4140625 14.98828125 9.4140625 14.98828125 7.625 12.3125 C5.67821216 9.43905741 3.7532934 6.69636111 1.5625 4 C0 2 0 2 0 0 Z " fill="#5494CA" transform="translate(509,261)"/>
<path d="M0 0 C4.88049925 3.9419417 9.0580583 8.11950075 13 13 C12.01 13.495 12.01 13.495 11 14 C11 13.34 11 12.68 11 12 C10.01 11.67 9.02 11.34 8 11 C6.31237149 9.3545622 4.6459651 7.68711423 3 6 C2.01 5.34 1.02 4.68 0 4 C0 2.68 0 1.36 0 0 Z " fill="#4D8DC7" transform="translate(359,139)"/>
<path d="M0 0 C0.66 0 1.32 0 2 0 C1.01 4.62 0.02 9.24 -1 14 C-1.99 14 -2.98 14 -4 14 C-3.52372025 12.04096255 -3.04388577 10.08278903 -2.5625 8.125 C-2.29566406 7.03445313 -2.02882813 5.94390625 -1.75390625 4.8203125 C-1 2 -1 2 0 0 Z " fill="#58A1CD" transform="translate(476,374)"/>
<path d="M0 0 C0.33 0 0.66 0 1 0 C2.32420347 6.45549191 3.37422887 13.10510214 0 19 C-0.66 19 -1.32 19 -2 19 C-1.505 17.515 -1.505 17.515 -1 16 C-0.77202438 13.26710707 -0.58331813 10.54957796 -0.4375 7.8125 C-0.39431641 7.06291016 -0.35113281 6.31332031 -0.30664062 5.54101562 C-0.20077315 3.69421625 -0.0999024 1.84713166 0 0 Z " fill="#5091C8" transform="translate(267,256)"/>
<path d="M0 0 C2 2 2 2 2.1953125 4.6015625 C2.17210937 5.59929687 2.14890625 6.59703125 2.125 7.625 C2.10695313 8.62789063 2.08890625 9.63078125 2.0703125 10.6640625 C2.03550781 11.82035156 2.03550781 11.82035156 2 13 C0.68 13 -0.64 13 -2 13 C-2 12.34 -2 11.68 -2 11 C-1.34 11 -0.68 11 0 11 C0 7.37 0 3.74 0 0 Z " fill="#6BB5E9" transform="translate(472,408)"/>
<path d="M0 0 C0.66 0 1.32 0 2 0 C0.66197896 3.60236433 -0.98857588 6.7314358 -3 10 C-3.68096422 11.32608822 -4.35330586 12.65686601 -5 14 C-5.99 13.67 -6.98 13.34 -8 13 C-7.34 13 -6.68 13 -6 13 C-5.938125 12.34 -5.87625 11.68 -5.8125 11 C-4.69621505 6.8783325 -2.66238434 3.34249498 0 0 Z " fill="#4B89C1" transform="translate(252,149)"/>
<path d="M0 0 C-2.32122027 1.16061013 -4.63991878 2.29329611 -7 3.375 C-9.91759287 4.95536281 -11.79953265 6.54563258 -14 9 C-14.66 8.67 -15.32 8.34 -16 8 C-10.95142965 2.66293992 -7.58466629 -0.52916276 0 0 Z " fill="#4C89C2" transform="translate(158,575)"/>
<path d="M0 0 C0.33 0.66 0.66 1.32 1 2 C-3.43076923 5.07692308 -3.43076923 5.07692308 -6.3125 4.6875 C-6.869375 4.460625 -7.42625 4.23375 -8 4 C-8 3.01 -8 2.02 -8 1 C-5.07175348 0.02391783 -3.04386724 -0.08226668 0 0 Z " fill="#487BB1" transform="translate(115,569)"/>
<path d="M0 0 C2.16295027 2.16295027 2.5534013 3.05244857 3 6 C2.67 6.99 2.34 7.98 2 9 C-0.0625 9.6875 -0.0625 9.6875 -2 10 C-1.54177532 6.53058454 -1.10868317 3.32604951 0 0 Z " fill="#5797D3" transform="translate(135,546)"/>
<path d="M0 0 C5.09210286 3.56320845 9.22660027 7.04741286 13 12 C9.57143381 10.49017269 7.04321784 8.48286031 4.25 6 C3.45078125 5.29875 2.6515625 4.5975 1.828125 3.875 C0 2 0 2 0 0 Z " fill="#5C95C9" transform="translate(490,242)"/>
<path d="M0 0 C0.66 0 1.32 0 2 0 C1 3 1 3 -1.28515625 4.38671875 C-2.20167969 4.81597656 -3.11820313 5.24523437 -4.0625 5.6875 C-4.98160156 6.12449219 -5.90070313 6.56148438 -6.84765625 7.01171875 C-7.55792969 7.33785156 -8.26820313 7.66398437 -9 8 C-9 7.01 -9 6.02 -9 5 C-6.03 4.01 -3.06 3.02 0 2 C0 1.34 0 0.68 0 0 Z " fill="#4C95DB" transform="translate(214,407)"/>
<path d="M0 0 C0.66 0 1.32 0 2 0 C0.54955729 4.10958767 -1.51110752 7.43258745 -4 11 C-4.64453125 9.234375 -4.64453125 9.234375 -5 7 C-4.07421875 5.078125 -4.07421875 5.078125 -2.6875 3.25 C-2.23761719 2.63640625 -1.78773438 2.0228125 -1.32421875 1.390625 C-0.88722656 0.93171875 -0.45023438 0.4728125 0 0 Z " fill="#4181C6" transform="translate(241,382)"/>
<path d="M0 0 C0.66 0 1.32 0 2 0 C1.44449305 3.59905908 0.25112752 4.99909799 -2.5625 7.25 C-3.20316406 7.77078125 -3.84382813 8.2915625 -4.50390625 8.828125 C-4.99761719 9.21484375 -5.49132812 9.6015625 -6 10 C-5.12808515 5.4934738 -3.09672921 3.32331916 0 0 Z " fill="#3B83C7" transform="translate(413,342)"/>
<path d="M0 0 C0.33 0 0.66 0 1 0 C1.06058594 0.98742187 1.12117187 1.97484375 1.18359375 2.9921875 C1.26738281 4.27351562 1.35117188 5.55484375 1.4375 6.875 C1.51871094 8.15117187 1.59992188 9.42734375 1.68359375 10.7421875 C1.79206027 13.88300152 1.79206027 13.88300152 3 16 C2.67 16.66 2.34 17.32 2 18 C1.34 18 0.68 18 0 18 C0 12.06 0 6.12 0 0 Z " fill="#5592CF" transform="translate(237,228)"/>
<path d="M0 0 C1.08711385 4.3484554 0.94219172 6.11561657 -1 10 C-1.99 9.67 -2.98 9.34 -4 9 C-2.68 6.03 -1.36 3.06 0 0 Z " fill="#5795C4" transform="translate(245,163)"/>
<path d="M0 0 C-3.00440021 2.00293347 -4.70993945 2.49271626 -8.1875 3.125 C-9.53908203 3.37636719 -9.53908203 3.37636719 -10.91796875 3.6328125 C-11.60503906 3.75398437 -12.29210937 3.87515625 -13 4 C-12.67 3.01 -12.34 2.02 -12 1 C-7.95858806 0.36605303 -4.0934693 -0.12404452 0 0 Z " fill="#70B9EE" transform="translate(531,518)"/>
<path d="M0 0 C0 0.33 0 0.66 0 1 C-4.95 1.66 -9.9 2.32 -15 3 C-14 1 -14 1 -10.875 -0.1875 C-6.83529318 -1.0345353 -4.01376904 -0.81913654 0 0 Z " fill="#76C0F0" transform="translate(549,516)"/>
<path d="M0 0 C3.68754757 0.49831724 5.60490662 1.10067643 8 4 C5.69 4.33 3.38 4.66 1 5 C0.34 4.01 -0.32 3.02 -1 2 C-0.67 1.34 -0.34 0.68 0 0 Z " fill="#5696CD" transform="translate(155,307)"/>
<path d="M0 0 C2.28062828 3.42094242 2.21925007 4.68187222 2.125 8.6875 C2.10695312 9.68136719 2.08890625 10.67523438 2.0703125 11.69921875 C2.03550781 12.83810547 2.03550781 12.83810547 2 14 C1.01 14 0.02 14 -1 14 C-0.67 9.38 -0.34 4.76 0 0 Z " fill="#5194CF" transform="translate(237,212)"/>
<path d="M0 0 C4.39381209 0.50214995 6.83419795 1.92213689 10 5 C10.640625 7.13671875 10.640625 7.13671875 11 9 C10.54109375 8.60167969 10.0821875 8.20335937 9.609375 7.79296875 C6.47728415 5.08857938 3.36122541 2.42008229 0 0 Z " fill="#5A97CB" transform="translate(119,575)"/>
<path d="M0 0 C0.66 0 1.32 0 2 0 C1.52797514 4.24822374 -0.96655518 6.19989709 -4 9 C-4.99 8.67 -5.98 8.34 -7 8 C-6.34 8 -5.68 8 -5 8 C-4.34 6.68 -3.68 5.36 -3 4 C-2.34 4 -1.68 4 -1 4 C-0.67 2.68 -0.34 1.36 0 0 Z " fill="#4E94DA" transform="translate(234,391)"/>
<path d="M0 0 C0.81404297 0.61488281 0.81404297 0.61488281 1.64453125 1.2421875 C2.35996094 1.78101563 3.07539063 2.31984375 3.8125 2.875 C4.52019531 3.40867187 5.22789062 3.94234375 5.95703125 4.4921875 C7.60456297 5.70814781 9.29624211 6.86416141 11 8 C8.69 7.67 6.38 7.34 4 7 C4 6.34 4 5.68 4 5 C3.01 5 2.02 5 1 5 C0.67 3.35 0.34 1.7 0 0 Z " fill="#497EB6" transform="translate(135,294)"/>
<path d="M0 0 C-0.33 0.99 -0.66 1.98 -1 3 C-1.99 3 -2.98 3 -4 3 C-4.33 3.99 -4.66 4.98 -5 6 C-7.0625 6.6875 -7.0625 6.6875 -9 7 C-7.51191431 2.53574293 -4.79253508 0 0 0 Z " fill="#578EBF" transform="translate(109,292)"/>
<path d="M0 0 C2.37945265 4.75890529 3.10095578 7.54838765 3 13 C1 12 1 12 0.375 10.4375 C-0.16368951 6.93601819 -0.05903219 3.54193167 0 0 Z " fill="#558DC7" transform="translate(239,255)"/>
<path d="M0 0 C0 0.66 0 1.32 0 2 C-2.63892176 3.78305524 -4.97178863 4.99059621 -8 6 C-10.1875 5.5625 -10.1875 5.5625 -12 5 C-10.37750059 4.16180842 -8.75191503 3.3295884 -7.125 2.5 C-6.22007812 2.0359375 -5.31515625 1.571875 -4.3828125 1.09375 C-2 0 -2 0 0 0 Z " fill="#5691C4" transform="translate(342,224)"/>
<path d="M0 0 C2.97 0.495 2.97 0.495 6 1 C5.67 1.99 5.34 2.98 5 4 C2.69 3.67 0.38 3.34 -2 3 C-1.34 2.67 -0.68 2.34 0 2 C0 1.34 0 0.68 0 0 Z " fill="#4C8EC2" transform="translate(159,571)"/>
<path d="M0 0 C1.12894876 0.93274109 2.25300876 1.87140122 3.375 2.8125 C4.00148438 3.33457031 4.62796875 3.85664063 5.2734375 4.39453125 C7 6 7 6 9 9 C6 9 6 9 4.39453125 7.79296875 C3.87246094 7.26316406 3.35039062 6.73335938 2.8125 6.1875 C2.01779297 5.40439453 2.01779297 5.40439453 1.20703125 4.60546875 C0 3 0 3 0 0 Z " fill="#4F97DD" transform="translate(260,369)"/>
<path d="M0 0 C1 4 1 4 0.22265625 5.921875 C-0.8515625 7.61458333 -1.92578125 9.30729167 -3 11 C-3.66 10.67 -4.32 10.34 -5 10 C-3.35 6.7 -1.7 3.4 0 0 Z " fill="#50A2CA" transform="translate(482,361)"/>
<path d="M0 0 C0.33 0.66 0.66 1.32 1 2 C0.0625 4.125 0.0625 4.125 -1 6 C-1.66 6 -2.32 6 -3 6 C-3.66 7.65 -4.32 9.3 -5 11 C-5.66 11 -6.32 11 -7 11 C-5.22054913 6.95579349 -2.60470327 3.53921513 0 0 Z " fill="#518CB5" transform="translate(490,350)"/>
<path d="M0 0 C0 0.66 0 1.32 0 2 C-1.53125 3.2890625 -1.53125 3.2890625 -3.5 4.625 C-4.1496875 5.07101562 -4.799375 5.51703125 -5.46875 5.9765625 C-5.9740625 6.31429688 -6.479375 6.65203125 -7 7 C-7.33 6.01 -7.66 5.02 -8 4 C-3.375 0 -3.375 0 0 0 Z " fill="#478DD2" transform="translate(407,351)"/>
<path d="M0 0 C0.66 0 1.32 0 2 0 C1.71872579 1.48117801 1.42466268 2.95993249 1.125 4.4375 C0.96257812 5.26121094 0.80015625 6.08492187 0.6328125 6.93359375 C0.31957031 7.95646484 0.31957031 7.95646484 0 9 C-0.99 9.495 -0.99 9.495 -2 10 C-1.125 2.25 -1.125 2.25 0 0 Z " fill="#4886C0" transform="translate(241,173)"/>
<path d="M0 0 C0.66 0 1.32 0 2 0 C0.68775452 3.93673644 -0.91910327 6.22719294 -4 9 C-3.4739075 5.21213403 -2.61896089 2.82847776 0 0 Z " fill="#4385D4" transform="translate(420,333)"/>
<path d="M0 0 C0.33 0.66 0.66 1.32 1 2 C-0.28716647 3.00578589 -1.57988658 4.00446798 -2.875 5 C-3.95394531 5.8353125 -3.95394531 5.8353125 -5.0546875 6.6875 C-7 8 -7 8 -9 8 C-9 7.34 -9 6.68 -9 6 C-7.03125 4.4921875 -7.03125 4.4921875 -4.5 2.875 C-3.6646875 2.33617187 -2.829375 1.79734375 -1.96875 1.2421875 C-1.3190625 0.83226562 -0.669375 0.42234375 0 0 Z " fill="#488CC4" transform="translate(185,334)"/>
<path d="M0 0 C-1.28519565 2.86697492 -2.57129254 4.97607712 -5 7 C-5.66 7 -6.32 7 -7 7 C-3.86206897 0 -3.86206897 0 0 0 Z " fill="#4576AF" transform="translate(301,252)"/>
<path d="M0 0 C2.90802461 2.21928194 4.95312762 3.92969143 7 7 C6.67 7.99 6.34 8.98 6 10 C6 9.34 6 8.68 6 8 C5.34 8 4.68 8 4 8 C0 2.58823529 0 2.58823529 0 0 Z " fill="#508EC9" transform="translate(372,153)"/>
<path d="M0 0 C0.99 0.66 1.98 1.32 3 2 C-0.22791555 4.1519437 -1.28400809 4.20086443 -5 4 C-5 3.34 -5 2.68 -5 2 C-2.6875 0.875 -2.6875 0.875 0 0 Z " fill="#5088BB" transform="translate(94,299)"/>
<path d="M0 0 C0.33 0 0.66 0 1 0 C1.36923077 5.41538462 1.36923077 5.41538462 -0.5 8.375 C-0.995 8.91125 -1.49 9.4475 -2 10 C-2.17942163 6.05272412 -2.09350689 3.4019487 0 0 Z " fill="#5892D2" transform="translate(133,411)"/>
<path d="M0 0 C0.59296875 0.21527344 1.1859375 0.43054688 1.796875 0.65234375 C0.51163239 1.51614634 -0.78154919 2.36814744 -2.078125 3.21484375 C-2.79742187 3.69050781 -3.51671875 4.16617188 -4.2578125 4.65625 C-4.89976562 4.98496094 -5.54171875 5.31367188 -6.203125 5.65234375 C-6.863125 5.32234375 -7.523125 4.99234375 -8.203125 4.65234375 C-2.74543269 -0.43323317 -2.74543269 -0.43323317 0 0 Z " fill="#5995D4" transform="translate(277.203125,126.34765625)"/>
</svg>
